<?xml version="1.0" encoding="UTF-8" standalone="no"?>
<!DOCTYPE svg PUBLIC "-//W3C//DTD SVG 1.1//EN"
 "http://www.w3.org/Graphics/SVG/1.1/DTD/svg11.dtd">
<!-- Generated by graphviz version 2.47.1 (20210417.1919)
 -->
<!-- Title: largeRelationshipsDiagram Pages: 1 -->
<svg width="462pt" height="861pt"
 viewBox="0.00 0.00 462.00 861.00" xmlns="http://www.w3.org/2000/svg" xmlns:xlink="http://www.w3.org/1999/xlink">
<g id="graph0" class="graph" transform="scale(1 1) rotate(0) translate(4 857)">
<title>largeRelationshipsDiagram</title>
<polygon fill="#ffffff" stroke="transparent" points="-4,4 -4,-857 458,-857 458,4 -4,4"/>
<!-- Author -->
<g id="node1" class="node">
<title>Author</title>
<g id="a_node1"><a xlink:href="../../tables/Author.html" xlink:title="Author" target="_top">
<polygon fill="#ffffff" stroke="transparent" points="149,-765 149,-849 230,-849 230,-765 149,-765"/>
<polygon fill="#f5f5f5" stroke="transparent" points="149.5,-827 149.5,-849 230.5,-849 230.5,-827 149.5,-827"/>
<polygon fill="none" stroke="black" points="149.5,-827 149.5,-849 230.5,-849 230.5,-827 149.5,-827"/>
<text text-anchor="start" x="154.5" y="-836.2" font-family="Helvetica,sans-Serif" font-weight="bold" font-size="11.00">Author</text>
<text text-anchor="start" x="195.5" y="-835.2" font-family="Helvetica,sans-Serif" font-size="11.00">[table]</text>
<polygon fill="none" stroke="black" points="149.5,-805 149.5,-827 230.5,-827 230.5,-805 149.5,-805"/>
<image xlink:href="./primaryKeys.png" width="11px" height="12px" preserveAspectRatio="xMinYMin meet" x="154.5" y="-822"/>
<text text-anchor="start" x="174.5" y="-813.2" font-family="Helvetica,sans-Serif" font-size="11.00">AuthorID</text>
<polygon fill="none" stroke="black" points="149.5,-783 149.5,-805 230.5,-805 230.5,-783 149.5,-783"/>
<text text-anchor="start" x="174.5" y="-791.2" font-family="Helvetica,sans-Serif" font-size="11.00">Name</text>
<polygon fill="#ffffff" stroke="transparent" points="149.5,-765 149.5,-783 165.5,-783 165.5,-765 149.5,-765"/>
<polygon fill="none" stroke="black" points="149.5,-765 149.5,-783 165.5,-783 165.5,-765 149.5,-765"/>
<text text-anchor="start" x="152.5" y="-771.2" font-family="Helvetica,sans-Serif" font-size="11.00"> &#160;</text>
<polygon fill="#ffffff" stroke="transparent" points="165.5,-765 165.5,-783 206.5,-783 206.5,-765 165.5,-765"/>
<polygon fill="none" stroke="black" points="165.5,-765 165.5,-783 206.5,-783 206.5,-765 165.5,-765"/>
<text text-anchor="start" x="170.5" y="-771.2" font-family="Helvetica,sans-Serif" font-size="11.00">0 rows</text>
<polygon fill="#ffffff" stroke="transparent" points="206.5,-765 206.5,-783 230.5,-783 230.5,-765 206.5,-765"/>
<polygon fill="none" stroke="black" points="206.5,-765 206.5,-783 230.5,-783 230.5,-765 206.5,-765"/>
<text text-anchor="start" x="211.5" y="-771.2" font-family="Helvetica,sans-Serif" font-size="11.00">1 &gt;</text>
</a>
</g>
</g>
<!-- Character -->
<g id="node2" class="node">
<title>Character</title>
<g id="a_node2"><a xlink:href="../../tables/Character.html" xlink:title="Character" target="_top">
<polygon fill="#ffffff" stroke="transparent" points="141.5,-142 141.5,-226 237.5,-226 237.5,-142 141.5,-142"/>
<polygon fill="#f5f5f5" stroke="transparent" points="141.5,-204 141.5,-226 237.5,-226 237.5,-204 141.5,-204"/>
<polygon fill="none" stroke="black" points="141.5,-204 141.5,-226 237.5,-226 237.5,-204 141.5,-204"/>
<text text-anchor="start" x="146.5" y="-213.2" font-family="Helvetica,sans-Serif" font-weight="bold" font-size="11.00">Character</text>
<text text-anchor="start" x="202.5" y="-212.2" font-family="Helvetica,sans-Serif" font-size="11.00">[table]</text>
<polygon fill="none" stroke="black" points="141.5,-182 141.5,-204 237.5,-204 237.5,-182 141.5,-182"/>
<image xlink:href="./primaryKeys.png" width="11px" height="12px" preserveAspectRatio="xMinYMin meet" x="146.5" y="-199"/>
<text text-anchor="start" x="165.5" y="-190.2" font-family="Helvetica,sans-Serif" font-size="11.00">CharacterID</text>
<polygon fill="none" stroke="black" points="141.5,-160 141.5,-182 237.5,-182 237.5,-160 141.5,-160"/>
<text text-anchor="start" x="165.5" y="-168.2" font-family="Helvetica,sans-Serif" font-size="11.00">Name</text>
<polygon fill="#ffffff" stroke="transparent" points="141.5,-142 141.5,-160 165.5,-160 165.5,-142 141.5,-142"/>
<polygon fill="none" stroke="black" points="141.5,-142 141.5,-160 165.5,-160 165.5,-142 141.5,-142"/>
<text text-anchor="start" x="144.5" y="-148.2" font-family="Helvetica,sans-Serif" font-size="11.00"> &#160;</text>
<polygon fill="#ffffff" stroke="transparent" points="165.5,-142 165.5,-160 209.5,-160 209.5,-142 165.5,-142"/>
<polygon fill="none" stroke="black" points="165.5,-142 165.5,-160 209.5,-160 209.5,-142 165.5,-142"/>
<text text-anchor="start" x="173.5" y="-148.2" font-family="Helvetica,sans-Serif" font-size="11.00">0 rows</text>
<polygon fill="#ffffff" stroke="transparent" points="209.5,-142 209.5,-160 237.5,-160 237.5,-142 209.5,-142"/>
<polygon fill="none" stroke="black" points="209.5,-142 209.5,-160 237.5,-160 237.5,-142 209.5,-142"/>
<text text-anchor="start" x="218.5" y="-148.2" font-family="Helvetica,sans-Serif" font-size="11.00">1 &gt;</text>
</a>
</g>
</g>
<!-- Comic -->
<g id="node3" class="node">
<title>Comic</title>
<g id="a_node3"><a xlink:href="../../tables/Comic.html" xlink:title="Comic" target="_top">
<polygon fill="#ffffff" stroke="transparent" points="135,-247 135,-639 244,-639 244,-247 135,-247"/>
<polygon fill="#f5f5f5" stroke="transparent" points="135.5,-617 135.5,-639 244.5,-639 244.5,-617 135.5,-617"/>
<polygon fill="none" stroke="black" points="135.5,-617 135.5,-639 244.5,-639 244.5,-617 135.5,-617"/>
<text text-anchor="start" x="140.5" y="-626.2" font-family="Helvetica,sans-Serif" font-weight="bold" font-size="11.00">Comic</text>
<text text-anchor="start" x="209.5" y="-625.2" font-family="Helvetica,sans-Serif" font-size="11.00">[table]</text>
<polygon fill="none" stroke="black" points="135.5,-595 135.5,-617 244.5,-617 244.5,-595 135.5,-595"/>
<image xlink:href="./primaryKeys.png" width="11px" height="12px" preserveAspectRatio="xMinYMin meet" x="140.5" y="-612"/>
<text text-anchor="start" x="155.5" y="-603.2" font-family="Helvetica,sans-Serif" font-size="11.00">ComicID</text>
<polygon fill="#ffffff" stroke="transparent" points="135.5,-573 135.5,-595 244.5,-595 244.5,-573 135.5,-573"/>
<polygon fill="none" stroke="black" points="135.5,-573 135.5,-595 244.5,-595 244.5,-573 135.5,-573"/>
<image xlink:href="./foreignKeys.png" width="11px" height="12px" preserveAspectRatio="xMinYMin meet" x="140.5" y="-590"/>
<text text-anchor="start" x="155.5" y="-581.2" font-family="Helvetica,sans-Serif" font-size="11.00">SeriesID</text>
<polygon fill="none" stroke="black" points="135.5,-551 135.5,-573 244.5,-573 244.5,-551 135.5,-551"/>
<text text-anchor="start" x="155.5" y="-559.2" font-family="Helvetica,sans-Serif" font-size="11.00">Number</text>
<polygon fill="none" stroke="black" points="135.5,-529 135.5,-551 244.5,-551 244.5,-529 135.5,-529"/>
<text text-anchor="start" x="155.5" y="-537.2" font-family="Helvetica,sans-Serif" font-size="11.00">Title</text>
<polygon fill="none" stroke="black" points="135.5,-507 135.5,-529 244.5,-529 244.5,-507 135.5,-507"/>
<text text-anchor="start" x="155.5" y="-515.2" font-family="Helvetica,sans-Serif" font-size="11.00">Summary</text>
<polygon fill="none" stroke="black" points="135.5,-485 135.5,-507 244.5,-507 244.5,-485 135.5,-485"/>
<text text-anchor="start" x="155.5" y="-493.2" font-family="Helvetica,sans-Serif" font-size="11.00">Language</text>
<polygon fill="none" stroke="black" points="135.5,-463 135.5,-485 244.5,-485 244.5,-463 135.5,-463"/>
<text text-anchor="start" x="155.5" y="-471.2" font-family="Helvetica,sans-Serif" font-size="11.00">Publisher</text>
<polygon fill="none" stroke="black" points="135.5,-441 135.5,-463 244.5,-463 244.5,-441 135.5,-441"/>
<text text-anchor="start" x="155.5" y="-449.2" font-family="Helvetica,sans-Serif" font-size="11.00">BlackAndWhite</text>
<polygon fill="none" stroke="black" points="135.5,-419 135.5,-441 244.5,-441 244.5,-419 135.5,-419"/>
<text text-anchor="start" x="155.5" y="-427.2" font-family="Helvetica,sans-Serif" font-size="11.00">Date</text>
<polygon fill="none" stroke="black" points="135.5,-397 135.5,-419 244.5,-419 244.5,-397 135.5,-397"/>
<text text-anchor="start" x="155.5" y="-405.2" font-family="Helvetica,sans-Serif" font-size="11.00">Web</text>
<polygon fill="none" stroke="black" points="135.5,-375 135.5,-397 244.5,-397 244.5,-375 135.5,-375"/>
<text text-anchor="start" x="155.5" y="-383.2" font-family="Helvetica,sans-Serif" font-size="11.00">CurrentPage</text>
<polygon fill="none" stroke="black" points="135.5,-353 135.5,-375 244.5,-375 244.5,-353 135.5,-353"/>
<text text-anchor="start" x="155.5" y="-361.2" font-family="Helvetica,sans-Serif" font-size="11.00">NumOfPages</text>
<polygon fill="#ffffff" stroke="transparent" points="135.5,-331 135.5,-353 244.5,-353 244.5,-331 135.5,-331"/>
<polygon fill="none" stroke="black" points="135.5,-331 135.5,-353 244.5,-353 244.5,-331 135.5,-331"/>
<image xlink:href="./foreignKeys.png" width="11px" height="12px" preserveAspectRatio="xMinYMin meet" x="140.5" y="-348"/>
<text text-anchor="start" x="155.5" y="-339.2" font-family="Helvetica,sans-Serif" font-size="11.00">FolderID</text>
<polygon fill="none" stroke="black" points="135.5,-309 135.5,-331 244.5,-331 244.5,-309 135.5,-309"/>
<text text-anchor="start" x="155.5" y="-317.2" font-family="Helvetica,sans-Serif" font-size="11.00">Love</text>
<polygon fill="none" stroke="black" points="135.5,-287 135.5,-309 244.5,-309 244.5,-287 135.5,-287"/>
<text text-anchor="start" x="155.5" y="-295.2" font-family="Helvetica,sans-Serif" font-size="11.00">ReadCount</text>
<polygon fill="#ffffff" stroke="transparent" points="135.5,-265 135.5,-287 244.5,-287 244.5,-265 135.5,-265"/>
<polygon fill="none" stroke="black" points="135.5,-265 135.5,-287 244.5,-287 244.5,-265 135.5,-265"/>
<text text-anchor="start" x="155.5" y="-273.2" font-family="Helvetica,sans-Serif" font-size="11.00">FileUri</text>
<polygon fill="#ffffff" stroke="transparent" points="135.5,-247 135.5,-265 170.5,-265 170.5,-247 135.5,-247"/>
<polygon fill="none" stroke="black" points="135.5,-247 135.5,-265 170.5,-265 170.5,-247 135.5,-247"/>
<text text-anchor="start" x="138.5" y="-253.2" font-family="Helvetica,sans-Serif" font-size="11.00">&lt; 2</text>
<polygon fill="#ffffff" stroke="transparent" points="170.5,-247 170.5,-265 215.5,-265 215.5,-247 170.5,-247"/>
<polygon fill="none" stroke="black" points="170.5,-247 170.5,-265 215.5,-265 215.5,-247 170.5,-247"/>
<text text-anchor="start" x="179.5" y="-253.2" font-family="Helvetica,sans-Serif" font-size="11.00">3 rows</text>
<polygon fill="#ffffff" stroke="transparent" points="215.5,-247 215.5,-265 244.5,-265 244.5,-247 215.5,-247"/>
<polygon fill="none" stroke="black" points="215.5,-247 215.5,-265 244.5,-265 244.5,-247 215.5,-247"/>
<text text-anchor="start" x="225.5" y="-253.2" font-family="Helvetica,sans-Serif" font-size="11.00">3 &gt;</text>
</a>
</g>
</g>
<!-- Folder -->
<g id="node7" class="node">
<title>Folder</title>
<g id="a_node7"><a xlink:href="../../tables/Folder.html" xlink:title="Folder" target="_top">
<polygon fill="#ffffff" stroke="transparent" points="8,-269 8,-375 86,-375 86,-269 8,-269"/>
<polygon fill="#f5f5f5" stroke="transparent" points="8,-353 8,-375 86,-375 86,-353 8,-353"/>
<polygon fill="none" stroke="black" points="8,-353 8,-375 86,-375 86,-353 8,-353"/>
<text text-anchor="start" x="13" y="-362.2" font-family="Helvetica,sans-Serif" font-weight="bold" font-size="11.00">Folder</text>
<text text-anchor="start" x="51" y="-361.2" font-family="Helvetica,sans-Serif" font-size="11.00">[table]</text>
<polygon fill="none" stroke="black" points="8,-331 8,-353 86,-353 86,-331 8,-331"/>
<image xlink:href="./primaryKeys.png" width="11px" height="12px" preserveAspectRatio="xMinYMin meet" x="13" y="-348"/>
<text text-anchor="start" x="30" y="-339.2" font-family="Helvetica,sans-Serif" font-size="11.00">FolderID</text>
<polygon fill="#ffffff" stroke="transparent" points="8,-309 8,-331 86,-331 86,-309 8,-309"/>
<polygon fill="none" stroke="black" points="8,-309 8,-331 86,-331 86,-309 8,-309"/>
<text text-anchor="start" x="30" y="-317.2" font-family="Helvetica,sans-Serif" font-size="11.00">FolderUri</text>
<polygon fill="none" stroke="black" points="8,-287 8,-309 86,-309 86,-287 8,-287"/>
<text text-anchor="start" x="30" y="-295.2" font-family="Helvetica,sans-Serif" font-size="11.00">Name</text>
<polygon fill="#ffffff" stroke="transparent" points="8,-269 8,-287 25,-287 25,-269 8,-269"/>
<polygon fill="none" stroke="black" points="8,-269 8,-287 25,-287 25,-269 8,-269"/>
<text text-anchor="start" x="11" y="-275.2" font-family="Helvetica,sans-Serif" font-size="11.00"> &#160;</text>
<polygon fill="#ffffff" stroke="transparent" points="25,-269 25,-287 61,-287 61,-269 25,-269"/>
<polygon fill="none" stroke="black" points="25,-269 25,-287 61,-287 61,-269 25,-269"/>
<text text-anchor="start" x="30" y="-275.2" font-family="Helvetica,sans-Serif" font-size="11.00">1 row</text>
<polygon fill="#ffffff" stroke="transparent" points="61,-269 61,-287 86,-287 86,-269 61,-269"/>
<polygon fill="none" stroke="black" points="61,-269 61,-287 86,-287 86,-269 61,-269"/>
<text text-anchor="start" x="67" y="-275.2" font-family="Helvetica,sans-Serif" font-size="11.00">1 &gt;</text>
</a>
</g>
</g>
<!-- Comic&#45;&gt;Folder -->
<g id="edge1" class="edge">
<title>Comic:w&#45;&gt;Folder:e</title>
<path fill="none" stroke="black" d="M120.09,-342C109.32,-342 102.34,-342 87,-342"/>
<polygon fill="black" stroke="black" points="126.5,-342 134.5,-345.6 130.5,-342 134.5,-342 134.5,-342 134.5,-342 130.5,-342 134.5,-338.4 126.5,-342 126.5,-342"/>
<ellipse fill="none" stroke="black" cx="123.3" cy="-342" rx="3.2" ry="3.2"/>
</g>
<!-- Series -->
<g id="node10" class="node">
<title>Series</title>
<g id="a_node10"><a xlink:href="../../tables/Series.html" xlink:title="Series" target="_top">
<polygon fill="#ffffff" stroke="transparent" points="8,-467 8,-617 86,-617 86,-467 8,-467"/>
<polygon fill="#f5f5f5" stroke="transparent" points="8,-595 8,-617 86,-617 86,-595 8,-595"/>
<polygon fill="none" stroke="black" points="8,-595 8,-617 86,-617 86,-595 8,-595"/>
<text text-anchor="start" x="13" y="-604.2" font-family="Helvetica,sans-Serif" font-weight="bold" font-size="11.00">Series</text>
<text text-anchor="start" x="51" y="-603.2" font-family="Helvetica,sans-Serif" font-size="11.00">[table]</text>
<polygon fill="none" stroke="black" points="8,-573 8,-595 86,-595 86,-573 8,-573"/>
<image xlink:href="./primaryKeys.png" width="11px" height="12px" preserveAspectRatio="xMinYMin meet" x="13" y="-590"/>
<text text-anchor="start" x="33" y="-581.2" font-family="Helvetica,sans-Serif" font-size="11.00">SeriesID</text>
<polygon fill="none" stroke="black" points="8,-551 8,-573 86,-573 86,-551 8,-551"/>
<text text-anchor="start" x="33" y="-559.2" font-family="Helvetica,sans-Serif" font-size="11.00">Name</text>
<polygon fill="none" stroke="black" points="8,-529 8,-551 86,-551 86,-529 8,-529"/>
<text text-anchor="start" x="33" y="-537.2" font-family="Helvetica,sans-Serif" font-size="11.00">Volume</text>
<polygon fill="none" stroke="black" points="8,-507 8,-529 86,-529 86,-507 8,-507"/>
<text text-anchor="start" x="33" y="-515.2" font-family="Helvetica,sans-Serif" font-size="11.00">Count</text>
<polygon fill="none" stroke="black" points="8,-485 8,-507 86,-507 86,-485 8,-485"/>
<text text-anchor="start" x="33" y="-493.2" font-family="Helvetica,sans-Serif" font-size="11.00">IsManga</text>
<polygon fill="#ffffff" stroke="transparent" points="8,-467 8,-485 23,-485 23,-467 8,-467"/>
<polygon fill="none" stroke="black" points="8,-467 8,-485 23,-485 23,-467 8,-467"/>
<text text-anchor="start" x="11" y="-473.2" font-family="Helvetica,sans-Serif" font-size="11.00"> &#160;</text>
<polygon fill="#ffffff" stroke="transparent" points="23,-467 23,-485 63,-485 63,-467 23,-467"/>
<polygon fill="none" stroke="black" points="23,-467 23,-485 63,-485 63,-467 23,-467"/>
<text text-anchor="start" x="27" y="-473.2" font-family="Helvetica,sans-Serif" font-size="11.00">3 rows</text>
<polygon fill="#ffffff" stroke="transparent" points="63,-467 63,-485 86,-485 86,-467 63,-467"/>
<polygon fill="none" stroke="black" points="63,-467 63,-485 86,-485 86,-467 63,-467"/>
<text text-anchor="start" x="67" y="-473.2" font-family="Helvetica,sans-Serif" font-size="11.00">1 &gt;</text>
</a>
</g>
</g>
<!-- Comic&#45;&gt;Series -->
<g id="edge2" class="edge">
<title>Comic:w&#45;&gt;Series:e</title>
<path fill="none" stroke="black" d="M120.09,-584C109.32,-584 102.34,-584 87,-584"/>
<polygon fill="black" stroke="black" points="126.5,-584 134.5,-587.6 130.5,-584 134.5,-584 134.5,-584 134.5,-584 130.5,-584 134.5,-580.4 126.5,-584 126.5,-584"/>
<ellipse fill="none" stroke="black" cx="123.3" cy="-584" rx="3.2" ry="3.2"/>
</g>
<!-- ComicAuthorJoin -->
<g id="node4" class="node">
<title>ComicAuthorJoin</title>
<g id="a_node4"><a xlink:href="../../tables/ComicAuthorJoin.html" xlink:title="ComicAuthorJoin" target="_top">
<polygon fill="#ffffff" stroke="transparent" points="300.5,-682 300.5,-788 438.5,-788 438.5,-682 300.5,-682"/>
<polygon fill="#f5f5f5" stroke="transparent" points="300.5,-766 300.5,-788 438.5,-788 438.5,-766 300.5,-766"/>
<polygon fill="none" stroke="black" points="300.5,-766 300.5,-788 438.5,-788 438.5,-766 300.5,-766"/>
<text text-anchor="start" x="305.5" y="-775.2" font-family="Helvetica,sans-Serif" font-weight="bold" font-size="11.00">ComicAuthorJoin</text>
<text text-anchor="start" x="403.5" y="-774.2" font-family="Helvetica,sans-Serif" font-size="11.00">[table]</text>
<polygon fill="none" stroke="black" points="300.5,-744 300.5,-766 438.5,-766 438.5,-744 300.5,-744"/>
<image xlink:href="./primaryKeys.png" width="11px" height="12px" preserveAspectRatio="xMinYMin meet" x="305.5" y="-761"/>
<text text-anchor="start" x="329.5" y="-752.2" font-family="Helvetica,sans-Serif" font-size="11.00">ComicID</text>
<polygon fill="none" stroke="black" points="300.5,-722 300.5,-744 438.5,-744 438.5,-722 300.5,-722"/>
<image xlink:href="./primaryKeys.png" width="11px" height="12px" preserveAspectRatio="xMinYMin meet" x="305.5" y="-739"/>
<text text-anchor="start" x="329.5" y="-730.2" font-family="Helvetica,sans-Serif" font-size="11.00">AuthorID</text>
<polygon fill="none" stroke="black" points="300.5,-700 300.5,-722 438.5,-722 438.5,-700 300.5,-700"/>
<image xlink:href="./primaryKeys.png" width="11px" height="12px" preserveAspectRatio="xMinYMin meet" x="305.5" y="-717"/>
<text text-anchor="start" x="329.5" y="-708.2" font-family="Helvetica,sans-Serif" font-size="11.00">RoleID</text>
<polygon fill="#ffffff" stroke="transparent" points="300.5,-682 300.5,-700 354.5,-700 354.5,-682 300.5,-682"/>
<polygon fill="none" stroke="black" points="300.5,-682 300.5,-700 354.5,-700 354.5,-682 300.5,-682"/>
<text text-anchor="start" x="303.5" y="-688.2" font-family="Helvetica,sans-Serif" font-size="11.00">&lt; 3</text>
<polygon fill="#ffffff" stroke="transparent" points="354.5,-682 354.5,-700 409.5,-700 409.5,-682 354.5,-682"/>
<polygon fill="none" stroke="black" points="354.5,-682 354.5,-700 409.5,-700 409.5,-682 354.5,-682"/>
<text text-anchor="start" x="373.5" y="-688.2" font-family="Helvetica,sans-Serif" font-size="11.00">0 rows</text>
<polygon fill="#ffffff" stroke="transparent" points="409.5,-682 409.5,-700 438.5,-700 438.5,-682 409.5,-682"/>
<polygon fill="none" stroke="black" points="409.5,-682 409.5,-700 438.5,-700 438.5,-682 409.5,-682"/>
<text text-anchor="start" x="428.5" y="-688.2" font-family="Helvetica,sans-Serif" font-size="11.00"> &#160;</text>
</a>
</g>
</g>
<!-- ComicAuthorJoin&#45;&gt;Author -->
<g id="edge3" class="edge">
<title>ComicAuthorJoin:w&#45;&gt;Author:e</title>
<path fill="none" stroke="black" d="M285.21,-736.36C257.34,-751.88 273.41,-816 231.5,-816"/>
<polygon fill="black" stroke="black" points="291.71,-734.83 300.32,-736.5 295.61,-733.91 299.5,-733 299.5,-733 299.5,-733 295.61,-733.91 298.68,-729.5 291.71,-734.83 291.71,-734.83"/>
<ellipse fill="none" stroke="black" cx="288.6" cy="-735.56" rx="3.2" ry="3.2"/>
</g>
<!-- ComicAuthorJoin&#45;&gt;Comic -->
<g id="edge4" class="edge">
<title>ComicAuthorJoin:w&#45;&gt;Comic:e</title>
<path fill="none" stroke="black" d="M285.17,-752.16C242.26,-731.56 310.16,-606 245.5,-606"/>
<polygon fill="black" stroke="black" points="291.65,-753.44 298.8,-758.53 295.58,-754.22 299.5,-755 299.5,-755 299.5,-755 295.58,-754.22 300.2,-751.47 291.65,-753.44 291.65,-753.44"/>
<ellipse fill="none" stroke="black" cx="288.51" cy="-752.82" rx="3.2" ry="3.2"/>
</g>
<!-- Role -->
<g id="node9" class="node">
<title>Role</title>
<g id="a_node9"><a xlink:href="../../tables/Role.html" xlink:title="Role" target="_top">
<polygon fill="#ffffff" stroke="transparent" points="152.5,-660 152.5,-744 226.5,-744 226.5,-660 152.5,-660"/>
<polygon fill="#f5f5f5" stroke="transparent" points="152.5,-722 152.5,-744 226.5,-744 226.5,-722 152.5,-722"/>
<polygon fill="none" stroke="black" points="152.5,-722 152.5,-744 226.5,-744 226.5,-722 152.5,-722"/>
<text text-anchor="start" x="157.5" y="-731.2" font-family="Helvetica,sans-Serif" font-weight="bold" font-size="11.00">Role</text>
<text text-anchor="start" x="191.5" y="-730.2" font-family="Helvetica,sans-Serif" font-size="11.00">[table]</text>
<polygon fill="none" stroke="black" points="152.5,-700 152.5,-722 226.5,-722 226.5,-700 152.5,-700"/>
<image xlink:href="./primaryKeys.png" width="11px" height="12px" preserveAspectRatio="xMinYMin meet" x="157.5" y="-717"/>
<text text-anchor="start" x="180.5" y="-708.2" font-family="Helvetica,sans-Serif" font-size="11.00">RoleID</text>
<polygon fill="none" stroke="black" points="152.5,-678 152.5,-700 226.5,-700 226.5,-678 152.5,-678"/>
<text text-anchor="start" x="180.5" y="-686.2" font-family="Helvetica,sans-Serif" font-size="11.00">Name</text>
<polygon fill="#ffffff" stroke="transparent" points="152.5,-660 152.5,-678 165.5,-678 165.5,-660 152.5,-660"/>
<polygon fill="none" stroke="black" points="152.5,-660 152.5,-678 165.5,-678 165.5,-660 152.5,-660"/>
<text text-anchor="start" x="155.5" y="-666.2" font-family="Helvetica,sans-Serif" font-size="11.00"> &#160;</text>
<polygon fill="#ffffff" stroke="transparent" points="165.5,-660 165.5,-678 204.5,-678 204.5,-660 165.5,-660"/>
<polygon fill="none" stroke="black" points="165.5,-660 165.5,-678 204.5,-678 204.5,-660 165.5,-660"/>
<text text-anchor="start" x="168.5" y="-666.2" font-family="Helvetica,sans-Serif" font-size="11.00">7 rows</text>
<polygon fill="#ffffff" stroke="transparent" points="204.5,-660 204.5,-678 226.5,-678 226.5,-660 204.5,-660"/>
<polygon fill="none" stroke="black" points="204.5,-660 204.5,-678 226.5,-678 226.5,-660 204.5,-660"/>
<text text-anchor="start" x="207.5" y="-666.2" font-family="Helvetica,sans-Serif" font-size="11.00">1 &gt;</text>
</a>
</g>
</g>
<!-- ComicAuthorJoin&#45;&gt;Role -->
<g id="edge5" class="edge">
<title>ComicAuthorJoin:w&#45;&gt;Role:e</title>
<path fill="none" stroke="black" d="M284.88,-711C264.04,-711 254,-711 227.5,-711"/>
<polygon fill="black" stroke="black" points="291.5,-711 299.5,-714.6 295.5,-711 299.5,-711 299.5,-711 299.5,-711 295.5,-711 299.5,-707.4 291.5,-711 291.5,-711"/>
<ellipse fill="none" stroke="black" cx="288.3" cy="-711" rx="3.2" ry="3.2"/>
</g>
<!-- ComicCharacterJoin -->
<g id="node5" class="node">
<title>ComicCharacterJoin</title>
<g id="a_node5"><a xlink:href="../../tables/ComicCharacterJoin.html" xlink:title="ComicCharacterJoin" target="_top">
<polygon fill="#ffffff" stroke="transparent" points="293,-457 293,-541 446,-541 446,-457 293,-457"/>
<polygon fill="#f5f5f5" stroke="transparent" points="293.5,-519 293.5,-541 446.5,-541 446.5,-519 293.5,-519"/>
<polygon fill="none" stroke="black" points="293.5,-519 293.5,-541 446.5,-541 446.5,-519 293.5,-519"/>
<text text-anchor="start" x="298.5" y="-528.2" font-family="Helvetica,sans-Serif" font-weight="bold" font-size="11.00">ComicCharacterJoin</text>
<text text-anchor="start" x="411.5" y="-527.2" font-family="Helvetica,sans-Serif" font-size="11.00">[table]</text>
<polygon fill="none" stroke="black" points="293.5,-497 293.5,-519 446.5,-519 446.5,-497 293.5,-497"/>
<image xlink:href="./primaryKeys.png" width="11px" height="12px" preserveAspectRatio="xMinYMin meet" x="298.5" y="-514"/>
<text text-anchor="start" x="321.5" y="-505.2" font-family="Helvetica,sans-Serif" font-size="11.00">ComicID</text>
<polygon fill="none" stroke="black" points="293.5,-475 293.5,-497 446.5,-497 446.5,-475 293.5,-475"/>
<image xlink:href="./primaryKeys.png" width="11px" height="12px" preserveAspectRatio="xMinYMin meet" x="298.5" y="-492"/>
<text text-anchor="start" x="321.5" y="-483.2" font-family="Helvetica,sans-Serif" font-size="11.00">CharacterID</text>
<polygon fill="#ffffff" stroke="transparent" points="293.5,-457 293.5,-475 354.5,-475 354.5,-457 293.5,-457"/>
<polygon fill="none" stroke="black" points="293.5,-457 293.5,-475 354.5,-475 354.5,-457 293.5,-457"/>
<text text-anchor="start" x="296.5" y="-463.2" font-family="Helvetica,sans-Serif" font-size="11.00">&lt; 2</text>
<polygon fill="#ffffff" stroke="transparent" points="354.5,-457 354.5,-475 413.5,-475 413.5,-457 354.5,-457"/>
<polygon fill="none" stroke="black" points="354.5,-457 354.5,-475 413.5,-475 413.5,-457 354.5,-457"/>
<text text-anchor="start" x="377.5" y="-463.2" font-family="Helvetica,sans-Serif" font-size="11.00">0 rows</text>
<polygon fill="#ffffff" stroke="transparent" points="413.5,-457 413.5,-475 446.5,-475 446.5,-457 413.5,-457"/>
<polygon fill="none" stroke="black" points="413.5,-457 413.5,-475 446.5,-475 446.5,-457 413.5,-457"/>
<text text-anchor="start" x="436.5" y="-463.2" font-family="Helvetica,sans-Serif" font-size="11.00"> &#160;</text>
</a>
</g>
</g>
<!-- ComicCharacterJoin&#45;&gt;Character -->
<g id="edge6" class="edge">
<title>ComicCharacterJoin:w&#45;&gt;Character:e</title>
<path fill="none" stroke="black" d="M278.97,-480.41C238.18,-439.9 299.28,-193 238.5,-193"/>
<polygon fill="black" stroke="black" points="285.11,-482.95 291.13,-489.33 288.8,-484.47 292.5,-486 292.5,-486 292.5,-486 288.8,-484.47 293.87,-482.67 285.11,-482.95 285.11,-482.95"/>
<ellipse fill="none" stroke="black" cx="282.15" cy="-481.72" rx="3.2" ry="3.2"/>
</g>
<!-- ComicCharacterJoin&#45;&gt;Comic -->
<g id="edge7" class="edge">
<title>ComicCharacterJoin:w&#45;&gt;Comic:e</title>
<path fill="none" stroke="black" d="M278.59,-512.21C255.07,-530.97 287.77,-606 245.5,-606"/>
<polygon fill="black" stroke="black" points="284.84,-510.32 293.54,-511.45 288.67,-509.16 292.5,-508 292.5,-508 292.5,-508 288.67,-509.16 291.46,-504.55 284.84,-510.32 284.84,-510.32"/>
<ellipse fill="none" stroke="black" cx="281.78" cy="-511.25" rx="3.2" ry="3.2"/>
</g>
<!-- ComicGenreJoin -->
<g id="node6" class="node">
<title>ComicGenreJoin</title>
<g id="a_node6"><a xlink:href="../../tables/ComicGenreJoin.html" xlink:title="ComicGenreJoin" target="_top">
<polygon fill="#ffffff" stroke="transparent" points="303.5,-157 303.5,-241 435.5,-241 435.5,-157 303.5,-157"/>
<polygon fill="#f5f5f5" stroke="transparent" points="303.5,-219 303.5,-241 435.5,-241 435.5,-219 303.5,-219"/>
<polygon fill="none" stroke="black" points="303.5,-219 303.5,-241 435.5,-241 435.5,-219 303.5,-219"/>
<text text-anchor="start" x="308.5" y="-228.2" font-family="Helvetica,sans-Serif" font-weight="bold" font-size="11.00">ComicGenreJoin</text>
<text text-anchor="start" x="400.5" y="-227.2" font-family="Helvetica,sans-Serif" font-size="11.00">[table]</text>
<polygon fill="none" stroke="black" points="303.5,-197 303.5,-219 435.5,-219 435.5,-197 303.5,-197"/>
<image xlink:href="./primaryKeys.png" width="11px" height="12px" preserveAspectRatio="xMinYMin meet" x="308.5" y="-214"/>
<text text-anchor="start" x="331.5" y="-205.2" font-family="Helvetica,sans-Serif" font-size="11.00">ComicID</text>
<polygon fill="none" stroke="black" points="303.5,-175 303.5,-197 435.5,-197 435.5,-175 303.5,-175"/>
<image xlink:href="./primaryKeys.png" width="11px" height="12px" preserveAspectRatio="xMinYMin meet" x="308.5" y="-192"/>
<text text-anchor="start" x="331.5" y="-183.2" font-family="Helvetica,sans-Serif" font-size="11.00">GenreID</text>
<polygon fill="#ffffff" stroke="transparent" points="303.5,-157 303.5,-175 354.5,-175 354.5,-157 303.5,-157"/>
<polygon fill="none" stroke="black" points="303.5,-157 303.5,-175 354.5,-175 354.5,-157 303.5,-157"/>
<text text-anchor="start" x="306.5" y="-163.2" font-family="Helvetica,sans-Serif" font-size="11.00">&lt; 2</text>
<polygon fill="#ffffff" stroke="transparent" points="354.5,-157 354.5,-175 407.5,-175 407.5,-157 354.5,-157"/>
<polygon fill="none" stroke="black" points="354.5,-157 354.5,-175 407.5,-175 407.5,-157 354.5,-157"/>
<text text-anchor="start" x="371.5" y="-163.2" font-family="Helvetica,sans-Serif" font-size="11.00">0 rows</text>
<polygon fill="#ffffff" stroke="transparent" points="407.5,-157 407.5,-175 435.5,-175 435.5,-157 407.5,-157"/>
<polygon fill="none" stroke="black" points="407.5,-157 407.5,-175 435.5,-175 435.5,-157 407.5,-157"/>
<text text-anchor="start" x="425.5" y="-163.2" font-family="Helvetica,sans-Serif" font-size="11.00"> &#160;</text>
</a>
</g>
</g>
<!-- ComicGenreJoin&#45;&gt;Comic -->
<g id="edge8" class="edge">
<title>ComicGenreJoin:w&#45;&gt;Comic:e</title>
<path fill="none" stroke="black" d="M288.5,-212.2C227.12,-254.74 329.44,-606 245.5,-606"/>
<polygon fill="black" stroke="black" points="294.84,-210.3 303.53,-211.45 298.67,-209.15 302.5,-208 302.5,-208 302.5,-208 298.67,-209.15 301.47,-204.55 294.84,-210.3 294.84,-210.3"/>
<ellipse fill="none" stroke="black" cx="291.77" cy="-211.22" rx="3.2" ry="3.2"/>
</g>
<!-- Genre -->
<g id="node8" class="node">
<title>Genre</title>
<g id="a_node8"><a xlink:href="../../tables/Genre.html" xlink:title="Genre" target="_top">
<polygon fill="#ffffff" stroke="transparent" points="151.5,-37 151.5,-121 227.5,-121 227.5,-37 151.5,-37"/>
<polygon fill="#f5f5f5" stroke="transparent" points="151.5,-99 151.5,-121 227.5,-121 227.5,-99 151.5,-99"/>
<polygon fill="none" stroke="black" points="151.5,-99 151.5,-121 227.5,-121 227.5,-99 151.5,-99"/>
<text text-anchor="start" x="156.5" y="-108.2" font-family="Helvetica,sans-Serif" font-weight="bold" font-size="11.00">Genre</text>
<text text-anchor="start" x="192.5" y="-107.2" font-family="Helvetica,sans-Serif" font-size="11.00">[table]</text>
<polygon fill="none" stroke="black" points="151.5,-77 151.5,-99 227.5,-99 227.5,-77 151.5,-77"/>
<image xlink:href="./primaryKeys.png" width="11px" height="12px" preserveAspectRatio="xMinYMin meet" x="156.5" y="-94"/>
<text text-anchor="start" x="176.5" y="-85.2" font-family="Helvetica,sans-Serif" font-size="11.00">GenreID</text>
<polygon fill="none" stroke="black" points="151.5,-55 151.5,-77 227.5,-77 227.5,-55 151.5,-55"/>
<text text-anchor="start" x="176.5" y="-63.2" font-family="Helvetica,sans-Serif" font-size="11.00">Name</text>
<polygon fill="#ffffff" stroke="transparent" points="151.5,-37 151.5,-55 165.5,-55 165.5,-37 151.5,-37"/>
<polygon fill="none" stroke="black" points="151.5,-37 151.5,-55 165.5,-55 165.5,-37 151.5,-37"/>
<text text-anchor="start" x="154.5" y="-43.2" font-family="Helvetica,sans-Serif" font-size="11.00"> &#160;</text>
<polygon fill="#ffffff" stroke="transparent" points="165.5,-37 165.5,-55 204.5,-55 204.5,-37 165.5,-37"/>
<polygon fill="none" stroke="black" points="165.5,-37 165.5,-55 204.5,-55 204.5,-37 165.5,-37"/>
<text text-anchor="start" x="168.5" y="-43.2" font-family="Helvetica,sans-Serif" font-size="11.00">0 rows</text>
<polygon fill="#ffffff" stroke="transparent" points="204.5,-37 204.5,-55 227.5,-55 227.5,-37 204.5,-37"/>
<polygon fill="none" stroke="black" points="204.5,-37 204.5,-55 227.5,-55 227.5,-37 204.5,-37"/>
<text text-anchor="start" x="208.5" y="-43.2" font-family="Helvetica,sans-Serif" font-size="11.00">1 &gt;</text>
</a>
</g>
</g>
<!-- ComicGenreJoin&#45;&gt;Genre -->
<g id="edge9" class="edge">
<title>ComicGenreJoin:w&#45;&gt;Genre:e</title>
<path fill="none" stroke="black" d="M288.02,-182.96C254.34,-166.42 277.32,-88 228.5,-88"/>
<polygon fill="black" stroke="black" points="294.67,-184.36 301.76,-189.52 298.59,-185.18 302.5,-186 302.5,-186 302.5,-186 298.59,-185.18 303.24,-182.48 294.67,-184.36 294.67,-184.36"/>
<ellipse fill="none" stroke="black" cx="291.54" cy="-183.7" rx="3.2" ry="3.2"/>
</g>
</g>
</svg>
